{
  "accessors": [
    {
      "bufferView": 2,
      "componentType": 5126,
      "count": 192,
      "max": [
        1.8829833269119263,
        1.882982850074768,
        0.48971492052078247
      ],
      "min": [
        -1.882982850074768,
        -1.8829833269119263,
        -0.006383923348039389
      ],
      "type": "VEC3"
    },
    {
      "bufferView": 2,
      "byteOffset": 2304,
      "componentType": 5126,
      "count": 192,
      "max": [
        1.0,
        1.0,
        0.7304480671882629
      ],
      "min": [
        -1.0,
        -1.0,
        -2.7656387402430482e-08
      ],
      "type": "VEC3"
    },
    {
      "bufferView": 3,
      "componentType": 5126,
      "count": 192,
      "max": [
        0.41581466794013977,
        0.9975780248641968,
        0.9995318055152893,
        1.0
      ],
      "min": [
        -0.47130054235458374,
        -1.7206511770950783e-08,
        -0.9995319247245789,
        1.0
      ],
      "type": "VEC4"
    },
    {
      "bufferView": 1,
      "componentType": 5126,
      "count": 192,
      "max": [
        0.7580386400222778,
        0.44412192702293396
      ],
      "min": [
        0.31983035802841187,
        0.005859375
      ],
      "type": "VEC2"
    },
    {
      "bufferView": 0,
      "componentType": 5125,
      "count": 1050,
      "type": "SCALAR"
    },
    {
      "bufferView": 2,
      "byteOffset": 4608,
      "componentType": 5126,
      "count": 47,
      "max": [
        1.762497901916504,
        0.9290639758110046,
        1.0691763162612915
      ],
      "min": [
        -1.5121097564697266,
        -0.8837959170341492,
        0.37653547525405884
      ],
      "type": "VEC3"
    },
    {
      "bufferView": 2,
      "byteOffset": 5172,
      "componentType": 5126,
      "count": 47,
      "max": [
        0.9532537460327148,
        0.7746425271034241,
        0.9783986210823059
      ],
      "min": [
        -0.8352615833282471,
        -0.8207724094390869,
        -0.8366140127182007
      ],
      "type": "VEC3"
    },
    {
      "bufferView": 3,
      "byteOffset": 3072,
      "componentType": 5126,
      "count": 47,
      "max": [
        0.8448740839958191,
        0.8187659382820129,
        0.8988667726516724,
        1.0
      ],
      "min": [
        -0.9980496764183044,
        -0.9454420208930969,
        -0.9580441117286682,
        1.0
      ],
      "type": "VEC4"
    },
    {
      "bufferView": 1,
      "byteOffset": 1536,
      "componentType": 5126,
      "count": 47,
      "max": [
        0.8597365021705627,
        0.9142279028892517
      ],
      "min": [
        0.4629642069339752,
        0.5315824151039124
      ],
      "type": "VEC2"
    },
    {
      "bufferView": 0,
      "byteOffset": 4200,
      "componentType": 5125,
      "count": 168,
      "type": "SCALAR"
    },
    {
      "bufferView": 2,
      "byteOffset": 5736,
      "componentType": 5126,
      "count": 56,
      "max": [
        0.6645891070365906,
        1.055821418762207,
        0.9124734997749329
      ],
      "min": [
        -0.6645891070365906,
        -1.0558212995529175,
        0.13378340005874634
      ],
      "type": "VEC3"
    },
    {
      "bufferView": 2,
      "byteOffset": 6408,
      "componentType": 5126,
      "count": 56,
      "max": [
        1.0,
        0.7071067690849304,
        0.5773504376411438
      ],
      "min": [
        -1.0,
        -0.70710688829422,
        -1.7678499375506362e-07
      ],
      "type": "VEC3"
    },
    {
      "bufferView": 3,
      "byteOffset": 3824,
      "componentType": 5126,
      "count": 56,
      "max": [
        0.816496729850769,
        0.70710688829422,
        1.0,
        1.0
      ],
      "min": [
        -1.3589130709590336e-08,
        -0.70710688829422,
        -1.0,
        1.0
      ],
      "type": "VEC4"
    },
    {
      "bufferView": 1,
      "byteOffset": 1912,
      "componentType": 5126,
      "count": 56,
      "max": [
        0.9350928068161011,
        0.6737141013145447
      ],
      "min": [
        0.6707391142845154,
        0.3377016484737396
      ],
      "type": "VEC2"
    },
    {
      "bufferView": 0,
      "byteOffset": 4872,
      "componentType": 5125,
      "count": 174,
      "type": "SCALAR"
    },
    {
      "bufferView": 2,
      "byteOffset": 7080,
      "componentType": 5126,
      "count": 2549,
      "max": [
        2.4328699111938477,
        2.0080299377441406,
        4.750138282775879
      ],
      "min": [
        -0.6092925667762756,
        -1.6511461734771729,
        -0.04808679223060608
      ],
      "type": "VEC3"
    },
    {
      "bufferView": 2,
      "byteOffset": 37668,
      "componentType": 5126,
      "count": 2549,
      "max": [
        0.9999209642410278,
        0.9996812343597412,
        0.9993923306465149
      ],
      "min": [
        -0.9997878670692444,
        -0.999970555305481,
        -0.9999904632568359
      ],
      "type": "VEC3"
    },
    {
      "bufferView": 3,
      "byteOffset": 4720,
      "componentType": 5126,
      "count": 2549,
      "max": [
        0.99996018409729,
        0.9996287226676941,
        0.9997392892837524,
        1.0
      ],
      "min": [
        -0.9994996190071106,
        -0.9997200965881348,
        -0.9999789595603943,
        1.0
      ],
      "type": "VEC4"
    },
    {
      "bufferView": 1,
      "byteOffset": 2360,
      "componentType": 5126,
      "count": 2549,
      "max": [
        0.9915862083435059,
        0.9396255016326904
      ],
      "min": [
        0.005859375,
        0.005859375
      ],
      "type": "VEC2"
    },
    {
      "bufferView": 0,
      "byteOffset": 5568,
      "componentType": 5125,
      "count": 13248,
      "type": "SCALAR"
    },
    {
      "bufferView": 2,
      "byteOffset": 68256,
      "componentType": 5126,
      "count": 4256,
      "max": [
        1.8911749124526978,
        0.3942856788635254,
        4.732872009277344
      ],
      "min": [
        -1.8898718357086182,
        -0.4350784718990326,
        0.6474435329437256
      ],
      "type": "VEC3"
    },
    {
      "bufferView": 2,
      "byteOffset": 119328,
      "componentType": 5126,
      "count": 4256,
      "max": [
        0.9996963143348694,
        0.9999995827674866,
        0.9997713565826416
      ],
      "min": [
        -0.9998855590820313,
        -0.9999988675117493,
        -0.9993847608566284
      ],
      "type": "VEC3"
    },
    {
      "bufferView": 3,
      "byteOffset": 45504,
      "componentType": 5126,
      "count": 4256,
      "max": [
        0.9999092221260071,
        0.9999630451202393,
        0.9991757869720459,
        1.0
      ],
      "min": [
        -0.9997066259384155,
        -0.9999988675117493,
        -0.9994219541549683,
        -1.0
      ],
      "type": "VEC4"
    },
    {
      "bufferView": 1,
      "byteOffset": 22752,
      "componentType": 5126,
      "count": 4256,
      "max": [
        0.31813034415245056,
        0.9377067685127258
      ],
      "min": [
        0.005859375,
        0.005859375
      ],
      "type": "VEC2"
    },
    {
      "bufferView": 0,
      "byteOffset": 58560,
      "componentType": 5125,
      "count": 24678,
      "type": "SCALAR"
    },
    {
      "bufferView": 2,
      "byteOffset": 170400,
      "componentType": 5126,
      "count": 288,
      "max": [
        1.1342799663543701,
        1.3552284240722656,
        0.9389793872833252
      ],
      "min": [
        -1.1194427013397217,
        -1.3598856925964355,
        0.24608920514583588
      ],
      "type": "VEC3"
    },
    {
      "bufferView": 2,
      "byteOffset": 173856,
      "componentType": 5126,
      "count": 288,
      "max": [
        0.9992534518241882,
        0.996742308139801,
        0.9915212392807007
      ],
      "min": [
        -0.996015727519989,
        -0.9760292768478394,
        -0.9956384897232056
      ],
      "type": "VEC3"
    },
    {
      "bufferView": 3,
      "byteOffset": 113600,
      "componentType": 5126,
      "count": 288,
      "max": [
        0.9996250867843628,
        0.9972589612007141,
        0.9696343541145325,
        1.0
      ],
      "min": [
        -0.9956189393997192,
        -0.9974982142448425,
        -0.9334168434143066,
        1.0
      ],
      "type": "VEC4"
    },
    {
      "bufferView": 1,
      "byteOffset": 56800,
      "componentType": 5126,
      "count": 288,
      "max": [
        0.9870882630348206,
        0.994140625
      ],
      "min": [
        0.005859375,
        0.44212451577186584
      ],
      "type": "VEC2"
    },
    {
      "bufferView": 0,
      "byteOffset": 157272,
      "componentType": 5125,
      "count": 1332,
      "type": "SCALAR"
    }
  ],
  "asset": {
    "extras": {
      "author": "imitate (https://sketchfab.com/imitate)",
      "license": "CC-BY-4.0 (http://creativecommons.org/licenses/by/4.0/)",
      "source": "https://sketchfab.com/3d-models/ancient-portal-b68dceee1b22484ab6ca0207b9e7137a",
      "title": "Ancient_Portal"
    },
    "generator": "Sketchfab-12.67.0",
    "version": "2.0"
  },
  "bufferViews": [
    {
      "buffer": 0,
      "byteLength": 162600,
      "name": "floatBufferViews",
      "target": 34963
    },
    {
      "buffer": 0,
      "byteLength": 59104,
      "byteOffset": 162600,
      "byteStride": 8,
      "name": "floatBufferViews",
      "target": 34962
    },
    {
      "buffer": 0,
      "byteLength": 177312,
      "byteOffset": 221704,
      "byteStride": 12,
      "name": "floatBufferViews",
      "target": 34962
    },
    {
      "buffer": 0,
      "byteLength": 118208,
      "byteOffset": 399016,
      "byteStride": 16,
      "name": "floatBufferViews",
      "target": 34962
    }
  ],
  "buffers": [
    {
      "byteLength": 517224,
      "uri": "scene.bin"
    }
  ],
  "images": [
    {
      "uri": "textures/platform__0_baseColor.png"
    },
    {
      "uri": "textures/platform__0_metallicRoughness.png"
    },
    {
      "uri": "textures/platform__0_emissive.png"
    },
    {
      "uri": "textures/platform__0_normal.png"
    }
  ],
  "materials": [
    {
      "emissiveFactor": [
        1.0,
        1.0,
        1.0
      ],
      "emissiveTexture": {
        "index": 2
      },
      "name": "platform__0",
      "normalTexture": {
        "index": 3
      },
      "occlusionTexture": {
        "index": 1
      },
      "pbrMetallicRoughness": {
        "baseColorTexture": {
          "index": 0
        },
        "metallicFactor": 0.0,
        "metallicRoughnessTexture": {
          "index": 1
        }
      }
    },
    {
      "emissiveFactor": [
        1.0,
        1.0,
        1.0
      ],
      "emissiveTexture": {
        "index": 2
      },
      "name": "UMesh_Cube14.001",
      "normalTexture": {
        "index": 3
      },
      "occlusionTexture": {
        "index": 1
      },
      "pbrMetallicRoughness": {
        "baseColorTexture": {
          "index": 0
        },
        "metallicFactor": 0.0,
        "metallicRoughnessTexture": {
          "index": 1
        }
      }
    },
    {
      "emissiveFactor": [
        1.0,
        1.0,
        1.0
      ],
      "emissiveTexture": {
        "index": 2
      },
      "name": "Cube_012.001",
      "normalTexture": {
        "index": 3
      },
      "occlusionTexture": {
        "index": 1
      },
      "pbrMetallicRoughness": {
        "baseColorTexture": {
          "index": 0
        },
        "metallicFactor": 0.0,
        "metallicRoughnessTexture": {
          "index": 1
        }
      }
    }
  ],
  "meshes": [
    {
      "name": "platform__0",
      "primitives": [
        {
          "attributes": {
            "NORMAL": 1,
            "POSITION": 0,
            "TANGENT": 2,
            "TEXCOORD_0": 3
          },
          "indices": 4,
          "material": 0,
          "mode": 4
        }
      ]
    },
    {
      "name": "PreArc__0",
      "primitives": [
        {
          "attributes": {
            "NORMAL": 6,
            "POSITION": 5,
            "TANGENT": 7,
            "TEXCOORD_0": 8
          },
          "indices": 9,
          "material": 0,
          "mode": 4
        }
      ]
    },
    {
      "name": "Stupeni__0",
      "primitives": [
        {
          "attributes": {
            "NORMAL": 11,
            "POSITION": 10,
            "TANGENT": 12,
            "TEXCOORD_0": 13
          },
          "indices": 14,
          "material": 0,
          "mode": 4
        }
      ]
    },
    {
      "name": "tree__0",
      "primitives": [
        {
          "attributes": {
            "NORMAL": 16,
            "POSITION": 15,
            "TANGENT": 17,
            "TEXCOORD_0": 18
          },
          "indices": 19,
          "material": 0,
          "mode": 4
        }
      ]
    },
    {
      "name": "Arc_UMesh_Cube14.001_0",
      "primitives": [
        {
          "attributes": {
            "NORMAL": 21,
            "POSITION": 20,
            "TANGENT": 22,
            "TEXCOORD_0": 23
          },
          "indices": 24,
          "material": 1,
          "mode": 4
        }
      ]
    },
    {
      "name": "LOW_Cube_012.001_0",
      "primitives": [
        {
          "attributes": {
            "NORMAL": 26,
            "POSITION": 25,
            "TANGENT": 27,
            "TEXCOORD_0": 28
          },
          "indices": 29,
          "material": 2,
          "mode": 4
        }
      ]
    }
  ],
  "nodes": [
    {
      "children": [
        1
      ],
      "matrix": [
        1.0,
        0.0,
        0.0,
        0.0,
        0.0,
        2.220446049250313e-16,
        -1.0,
        0.0,
        0.0,
        1.0,
        2.220446049250313e-16,
        0.0,
        0.0,
        0.0,
        0.0,
        1.0
      ],
      "name": "Sketchfab_model"
    },
    {
      "children": [
        2
      ],
      "matrix": [
        1.0,
        0.0,
        0.0,
        0.0,
        0.0,
        0.0,
        1.0,
        0.0,
        0.0,
        -1.0,
        0.0,
        0.0,
        0.0,
        0.0,
        0.0,
        1.0
      ],
      "name": "30f2455896134e2fb0ee76e686e7d372.fbx"
    },
    {
      "children": [
        3,
        5,
        7,
        9,
        11,
        13
      ],
      "name": "RootNode"
    },
    {
      "children": [
        4
      ],
      "matrix": [
        100.0,
        0.0,
        0.0,
        0.0,
        0.0,
        -1.629206793918314e-05,
        -99.99999999999868,
        0.0,
        0.0,
        99.99999999999868,
        -1.629206793918314e-05,
        0.0,
        0.0,
        0.0,
        0.0,
        1.0
      ],
      "name": "platform"
    },
    {
      "mesh": 0,
      "name": "platform__0"
    },
    {
      "children": [
        6
      ],
      "matrix": [
        100.0,
        0.0,
        0.0,
        0.0,
        0.0,
        -1.629206793918314e-05,
        -99.99999999999868,
        0.0,
        0.0,
        99.99999999999868,
        -1.629206793918314e-05,
        0.0,
        0.0,
        0.0,
        0.0,
        1.0
      ],
      "name": "PreArc"
    },
    {
      "mesh": 1,
      "name": "PreArc__0"
    },
    {
      "children": [
        8
      ],
      "matrix": [
        100.0,
        0.0,
        0.0,
        0.0,
        0.0,
        -1.629206793918314e-05,
        -99.99999999999868,
        0.0,
        0.0,
        99.99999999999868,
        -1.629206793918314e-05,
        0.0,
        0.0,
        0.0,
        0.0,
        1.0
      ],
      "name": "Stupeni"
    },
    {
      "mesh": 2,
      "name": "Stupeni__0"
    },
    {
      "children": [
        10
      ],
      "matrix": [
        100.0,
        0.0,
        0.0,
        0.0,
        0.0,
        -1.629206793918314e-05,
        -99.99999999999868,
        0.0,
        0.0,
        99.99999999999868,
        -1.629206793918314e-05,
        0.0,
        0.0,
        0.0,
        0.0,
        1.0
      ],
      "name": "tree"
    },
    {
      "mesh": 3,
      "name": "tree__0"
    },
    {
      "children": [
        12
      ],
      "matrix": [
        100.0,
        0.0,
        0.0,
        0.0,
        0.0,
        -1.629206793918314e-05,
        -99.99999999999868,
        0.0,
        0.0,
        99.99999999999868,
        -1.629206793918314e-05,
        0.0,
        0.0,
        0.0,
        0.0,
        1.0
      ],
      "name": "Arc"
    },
    {
      "mesh": 4,
      "name": "Arc_UMesh_Cube14.001_0"
    },
    {
      "children": [
        14
      ],
      "matrix": [
        100.0,
        0.0,
        0.0,
        0.0,
        0.0,
        -1.629206793918314e-05,
        -99.99999999999868,
        0.0,
        0.0,
        99.99999999999868,
        -1.629206793918314e-05,
        0.0,
        0.0,
        0.0,
        0.0,
        1.0
      ],
      "name": "LOW"
    },
    {
      "mesh": 5,
      "name": "LOW_Cube_012.001_0"
    }
  ],
  "samplers": [
    {
      "magFilter": 9729,
      "minFilter": 9987,
      "wrapS": 10497,
      "wrapT": 10497
    }
  ],
  "scene": 0,
  "scenes": [
    {
      "name": "Sketchfab_Scene",
      "nodes": [
        0
      ]
    }
  ],
  "textures": [
    {
      "sampler": 0,
      "source": 0
    },
    {
      "sampler": 0,
      "source": 1
    },
    {
      "sampler": 0,
      "source": 2
    },
    {
      "sampler": 0,
      "source": 3
    }
  ]
}
